# xmcd CD database file
#
# Track frame offsets:
#	150
#	11886
#	25681
#	37447
#	51712
#	63137
#	75467
#	90162
#	104447
#	117495
#	132436
#	152937
#	167596
#	179696
#	198218
#	210235
#	225428
#	239280
#	253730
#	267102
#
# Disc length: 3749 seconds
#
# Revision: 0
# Processed by: cddbd v1.5PL3 Copyright (c) Steve Scherf et al.
# Submitted via: CDex 1.51
#
DISCID=100ea314
DTITLE=Ella Fitzgerald - Sophisticated Lady - The Greatest Hits I
DYEAR=2001
DGENRE=Jazz
TTITLE0=I'll Chase The Blues Away
TTITLE1=Melancholy Baby
TTITLE2=Sing Me A Swing Song
TTITLE3=Goodnight My Love
TTITLE4=Oh, Yes, Take Another Guess
TTITLE5=My Last Affair
TTITLE6=Dedicated To You
TTITLE7=You Showed Me The Way
TTITLE8=Love Is The Thing So They Say
TTITLE9=Deep In The Heart Of The South
TTITLE10=I Want To Be Happy
TTITLE11=The Dipsy Doodle
TTITLE12=If Dreams Come True
TTITLE13=Hallelujah
TTITLE14=A-Tisket, A-Tasket
TTITLE15=I'm Just A Jitterburg
TTITLE16=We Can't Go On This Way
TTITLE17=MacPherson Is Rehearsing (To Swing)
TTITLE18=Gotta Peable In My Shoe
TTITLE19=I Can't Stop Loving You
EXTD=YEAR: 2001
EXTT0=
EXTT1=
EXTT2=
EXTT3=
EXTT4=
EXTT5=
EXTT6=
EXTT7=
EXTT8=
EXTT9=
EXTT10=
EXTT11=
EXTT12=
EXTT13=
EXTT14=
EXTT15=
EXTT16=
EXTT17=
EXTT18=
EXTT19=
PLAYORDER=
